<svg width="101" height="94" viewBox="0 0 101 94" fill="none" xmlns="http://www.w3.org/2000/svg">
<g clip-path="url(#clip0_1200_5132)">
<path fill-rule="evenodd" clip-rule="evenodd" d="M74.989 19.8932C73.6471 19.6205 62.9806 24.101 48.2918 31.3277C37.2164 36.623 23.1014 43.5177 13.5466 48.1849C11.417 49.2251 9.51399 50.1547 7.92162 50.9313C-3.71799 56.6609 -8.41257 59.4608 -9.94811 61.7285C-11.0702 63.3856 -12.2624 66.649 -12.5124 68.8967C-12.6751 71.2035 -12.2046 74.8295 -11.3153 77.0855C-9.64921 81.0123 -9.53383 81.2176 22.1261 102.656C53.786 124.095 54.0195 124.126 58.2841 124.215C60.7091 124.203 64.2506 123.294 66.3321 122.286C68.3264 121.22 70.855 118.989 71.9181 117.419C72.9221 115.936 74.0916 111.767 74.496 108.352C74.5626 107.478 74.7187 105.523 74.9402 102.746C75.5776 94.7584 76.7572 79.9752 77.9088 64.6127C79.4606 43.9107 80.4645 26.2723 80.2956 25.3947C80.1857 24.4298 79.378 22.9924 78.5958 22.0811C77.8136 21.1698 76.1846 20.194 74.989 19.8932ZM50.2809 42.4721C47.6115 43.972 35.6175 50.2249 23.4491 56.3598C11.3679 62.5536 0.985745 68.1171 0.513269 68.8148C0.0407934 69.5125 -0.290895 70.9417 -0.0937869 71.9656C0.15963 73.2821 3.7328 76.0833 11.9312 81.6349L23.4439 89.4307C49.0757 51.5784 56.1683 40.3528 55.8195 40.1166C55.3834 39.8213 52.9221 40.826 50.2809 42.4721ZM50.4466 72.097L33.91 96.5179C53.6211 109.865 57.6949 112.115 58.8651 111.89C59.8891 111.693 61.0929 110.854 61.5654 110.156C62.0379 109.459 63.3495 97.7531 64.6157 84.2358C65.7947 70.6595 67.061 57.1423 67.5217 54.0196C68.0107 51.0433 68.0299 48.3849 67.681 48.1486C67.2449 47.8533 59.5418 58.6655 50.4466 72.097Z" fill="#05FF00"/>
</g>
<rect x="5.79409" y="5.79409" width="89.0841" height="81.8415" rx="40.9207" stroke="white" stroke-width="11.5882"/>
<defs>
<clipPath id="clip0_1200_5132">
<rect width="100.672" height="93.4296" rx="46.7148" fill="white"/>
</clipPath>
</defs>
</svg>
