<svg width="218" height="38" viewBox="0 0 218 38" fill="none" xmlns="http://www.w3.org/2000/svg">
<path d="M7.63752 3.2754L209.456 3.27539V8.31916H214.5V29.9353H209.456V34.9791H7.63752V29.9353H2.59375V8.31917H7.63752V3.2754Z" fill="#205277"/>
<path fill-rule="evenodd" clip-rule="evenodd" d="M5.04377 0.681641L212.456 0.681641V5.72541H217.5V32.5294H212.456V37.5732H5.04377V32.5294H0V5.72541H5.04377V0.681641ZM5.18788 10.9133H10.2316V5.86952H207.268V10.9133H212.312V27.3416H207.268V32.3853H10.2316V27.3416H5.18788V10.9133Z" fill="black"/>
<path fill-rule="evenodd" clip-rule="evenodd" d="M13.9774 8.46289H213.5V13.6508H19.1652V16.1006H14.1215V35.0508H8.93359V16.1006H13.9774V8.46289Z" fill="black"/>
<path fill-rule="evenodd" clip-rule="evenodd" d="M9.89143 4.57227H207.497V9.76014H13.9985V16.1729H10.0355V31.1601H4.84766V10.913H9.89143V4.57227Z" fill="#123A57"/>
</svg>
