<svg width="22" height="44" viewBox="0 0 22 44" fill="none" xmlns="http://www.w3.org/2000/svg">
<path d="M22 16.5C22 22.299 17.299 27 11.5 27C5.70101 27 1 22.299 1 16.5C1 10.701 5.70101 6 11.5 6C17.299 6 22 10.701 22 16.5Z" fill="white"/>
<path fill-rule="evenodd" clip-rule="evenodd" d="M2 0C0.894531 0 0 0.894531 0 2V31C0 32.1055 0.894531 33 2 33H4.08984C4.41406 33 4.72656 33.0781 5.00391 33.2188C5.44531 33.4453 5.80078 33.8359 5.97266 34.3281L8.70703 41.9766C9.32812 43.7168 11.7734 43.7539 12.4492 42.0352L15.5 34.2695C15.8008 33.5039 16.5391 33 17.3633 33H20C21.1055 33 22 32.1055 22 31V2C22 0.894531 21.1055 0 20 0H2ZM10.5 25C15.1953 25 19 21.1953 19 16.5C19 11.8047 15.1953 8 10.5 8C5.80469 8 2 11.8047 2 16.5C2 21.1953 5.80469 25 10.5 25Z" fill="black"/>
<path d="M12 16.5C12 17.3284 11.3284 18 10.5 18C9.67157 18 9 17.3284 9 16.5C9 15.6716 9.67157 15 10.5 15C11.3284 15 12 15.6716 12 16.5Z" fill="black"/>
</svg>
