<svg width="125" height="125" viewBox="0 0 125 125" fill="none" xmlns="http://www.w3.org/2000/svg">
<path fill-rule="evenodd" clip-rule="evenodd" d="M60.8203 23.0596C59.7975 23.4754 54.6338 31.2441 47.9946 42.652C42.92 51.1502 36.518 62.0789 32.1843 69.4769C31.2183 71.1259 30.3551 72.5995 29.6323 73.8317C24.3726 82.8735 22.4694 86.8487 22.4502 89.0568C22.4361 90.6704 23.0918 93.3939 23.927 95.0149C24.8471 96.6366 26.7811 98.8617 28.3851 99.9798C31.2563 101.873 31.4254 101.96 62.2533 102.229C93.0812 102.497 93.2518 102.414 96.1555 100.571C97.7787 99.4807 99.7513 97.2897 100.7 95.6843C101.563 94.0781 102.265 91.4513 102.279 89.9227C102.291 88.479 101.216 85.1572 99.9635 82.6833C99.6185 82.067 98.8509 80.6846 97.761 78.7219C94.6246 73.0735 88.8195 62.619 82.737 51.7878C74.5409 37.193 67.344 24.9001 66.8389 24.3861C66.3345 23.7871 65.1507 23.1823 64.2188 22.9194C63.2868 22.6565 61.7574 22.7281 60.8203 23.0596ZM54.3064 49.2465C53.1831 51.4449 47.919 60.9963 42.485 70.5462C37.136 80.0969 32.6465 88.466 32.6406 89.1454C32.6347 89.8248 33.0497 90.9325 33.639 91.5322C34.3967 92.3032 38.0462 92.5898 46.0292 92.6594L57.2394 92.7571C57.5607 55.8995 57.3143 45.196 56.9746 45.193C56.55 45.1893 55.3455 46.9624 54.3064 49.2465ZM67.6377 69.0669L67.4304 92.846C86.6235 93.0133 90.3632 92.7062 91.0485 92.0327C91.6482 91.4434 92.0824 90.3431 92.0884 89.6637C92.0943 88.9843 87.7515 80.5382 82.5698 70.8957C77.3031 61.2525 72.1215 51.61 71.0374 49.3074C70.0376 47.0905 68.8642 45.2967 68.5245 45.2937C68.0998 45.29 67.7518 55.9884 67.6377 69.0669Z" fill="#05FF00"/>
</svg>
