<svg width="101" height="94" viewBox="0 0 101 94" fill="none" xmlns="http://www.w3.org/2000/svg">
<g clip-path="url(#clip0_1200_5138)">
<path fill-rule="evenodd" clip-rule="evenodd" d="M47.3624 12.9444C46.0958 13.4646 39.7268 23.123 31.5443 37.3016C25.2891 47.8646 17.3984 61.448 12.0571 70.6429C10.8666 72.6923 9.80279 74.5237 8.91191 76.055C2.42963 87.2929 0.0872644 92.2317 0.0733888 94.9703C0.063249 96.9716 0.888819 100.346 1.93199 102.353C3.08049 104.36 5.48922 107.111 7.48357 108.491C11.0531 110.826 11.2632 110.932 49.4983 111.126C87.7334 111.32 87.9446 111.216 91.5376 108.916C93.5459 107.557 95.9823 104.831 97.1511 102.836C98.2146 100.84 99.0738 97.5786 99.0834 95.6826C99.0924 93.892 97.7439 89.7772 96.1795 86.7146C95.7486 85.9517 94.7901 84.2402 93.4291 81.8102C89.5135 74.8187 82.2668 61.8797 74.6745 48.4748C64.4433 30.411 55.4617 15.1974 54.8329 14.5622C54.2047 13.8217 52.7338 13.0769 51.5767 12.7551C50.4197 12.4332 48.5232 12.5289 47.3624 12.9444ZM39.4003 45.4527C38.0172 48.1844 31.5317 60.0542 24.8355 71.923C18.2447 83.7923 12.7147 94.1923 12.7104 95.0349C12.7061 95.8776 13.2258 97.2496 13.9594 97.9906C14.9026 98.9434 19.4302 99.2823 29.3313 99.3325L43.235 99.4029C43.4666 53.6893 43.1125 40.4155 42.6912 40.4134C42.1646 40.4107 40.6787 42.6152 39.4003 45.4527ZM56.0241 69.9743L55.8747 99.467C79.6795 99.5876 84.3162 99.1897 85.1631 98.3514C85.9041 97.6178 86.4377 96.2512 86.442 95.4085C86.4463 94.5659 81.0219 84.1104 74.5517 72.1749C67.9762 60.2389 61.5059 48.3034 60.1511 45.4525C58.901 42.7075 57.4375 40.4881 57.0162 40.486C56.4896 40.4833 56.1063 53.7534 56.0241 69.9743Z" fill="#05FF00"/>
</g>
<rect x="5.79409" y="5.79409" width="89.0841" height="81.8415" stroke="white" stroke-width="11.5882"/>
<defs>
<clipPath id="clip0_1200_5138">
<rect width="100.672" height="93.4296" fill="white"/>
</clipPath>
</defs>
</svg>
