<svg width="157" height="37" viewBox="0 0 157 37" fill="none" xmlns="http://www.w3.org/2000/svg">
<path d="M-53.3625 2.59376L148.456 2.59375V7.63752H153.5V29.2537H148.456V34.2974H-53.3625V29.2537H-58.4062V7.63752H-53.3625V2.59376Z" fill="#474747" fill-opacity="0.77"/>
<path fill-rule="evenodd" clip-rule="evenodd" d="M-55.9562 0L151.456 0V5.04377H156.5V31.8478H151.456V36.8916H-55.9562V31.8478H-61V5.04377H-55.9562V0ZM-55.8121 10.2316H-50.7684V5.18788H146.268V10.2316H151.312V26.6599H146.268V31.7037H-50.7684V26.6599H-55.8121V10.2316Z" fill="black"/>
<path fill-rule="evenodd" clip-rule="evenodd" d="M-47.0226 7.78125H152.5V12.9691H-41.8348V15.419H-46.8785V34.3691H-52.0664V15.419H-47.0226V7.78125Z" fill="black"/>
<path fill-rule="evenodd" clip-rule="evenodd" d="M-51.1086 3.89062H146.497V9.0785H-47.0015V15.4913H-50.9645V30.4785H-56.1523V10.2314H-51.1086V3.89062Z" fill="#282828"/>
</svg>
