<svg width="96" height="45" viewBox="0 0 96 45" fill="none" xmlns="http://www.w3.org/2000/svg">
<path d="M7.63752 33.5H88.3378V36.0008H93.3816L93.3817 37.3257H88.3379V42.3695H7.63759V37.3257H2.59382L2.59375 36.0008H7.63752V33.5Z" fill="#121212"/>
<path fill-rule="evenodd" clip-rule="evenodd" d="M5.04377 8.07054H90.932V13.1143H95.9757V39.9183H90.932V44.9621H5.04377V39.9183H0V13.1143H5.04377V8.07054ZM5.18788 18.3022H10.2316V13.2584H85.7441V18.3022H90.7879V34.7305H85.7441V39.7742H10.2316V34.7305H5.18788V18.3022Z" fill="black"/>
<path d="M7.63752 2.59375H88.3378V7.63752H93.3816V29.2537H88.3378V34.2974H7.63752V29.2537H2.59375V7.63752H7.63752V2.59375Z" fill="#FF0000"/>
<path fill-rule="evenodd" clip-rule="evenodd" d="M5.04377 0H90.932V5.04377H95.9757V31.8478H90.932V36.8916H5.04377V31.8478H0V5.04377H5.04377V0ZM5.18788 10.2316H10.2316V5.18788H85.7441V10.2316H90.7879V26.6599H85.7441V31.7037H10.2316V26.6599H5.18788V10.2316Z" fill="black"/>
<path d="M36.4348 11H38.1739V12.7391H36.4348V11Z" fill="white"/>
<path d="M38.1739 11H39.913V12.7391H38.1739V11Z" fill="white"/>
<path d="M39.913 11H41.6522V12.7391H39.913V11Z" fill="white"/>
<path d="M52.087 11H53.8261V12.7391H52.087V11Z" fill="white"/>
<path d="M53.8261 11H55.5652V12.7391H53.8261V11Z" fill="white"/>
<path d="M32.9565 12.7391H34.6957V14.4783H32.9565V12.7391Z" fill="white"/>
<path d="M34.6957 12.7391H36.4348V14.4783H34.6957V12.7391Z" fill="white"/>
<path d="M36.4348 12.7391H38.1739V14.4783H36.4348V12.7391Z" fill="white"/>
<path d="M38.1739 12.7391H39.913V14.4783H38.1739V12.7391Z" fill="white"/>
<path d="M39.913 12.7391H41.6522V14.4783H39.913V12.7391Z" fill="white"/>
<path d="M41.6522 12.7391H43.3913V14.4783H41.6522V12.7391Z" fill="white"/>
<path d="M43.3913 12.7391H45.1304V14.4783H43.3913V12.7391Z" fill="white"/>
<path d="M46.8696 12.7391H48.6087V14.4783H46.8696V12.7391Z" fill="white"/>
<path d="M48.6087 12.7391H50.3478V14.4783H48.6087V12.7391Z" fill="white"/>
<path d="M50.3478 12.7391H52.087V14.4783H50.3478V12.7391Z" fill="white"/>
<path d="M52.087 12.7391H53.8261V14.4783H52.087V12.7391Z" fill="white"/>
<path d="M53.8261 12.7391H55.5652V14.4783H53.8261V12.7391Z" fill="white"/>
<path d="M55.5652 12.7391H57.3043V14.4783H55.5652V12.7391Z" fill="white"/>
<path d="M31.2174 14.4783H32.9565V16.2174H31.2174V14.4783Z" fill="white"/>
<path d="M32.9565 14.4783H34.6957V16.2174H32.9565V14.4783Z" fill="white"/>
<path d="M34.6957 14.4783H36.4348V16.2174H34.6957V14.4783Z" fill="white"/>
<path d="M36.4348 14.4783H38.1739V16.2174H36.4348V14.4783Z" fill="white"/>
<path d="M38.1739 14.4783H39.913V16.2174H38.1739V14.4783Z" fill="white"/>
<path d="M39.913 14.4783H41.6522V16.2174H39.913V14.4783Z" fill="white"/>
<path d="M41.6522 14.4783H43.3913V16.2174H41.6522V14.4783Z" fill="white"/>
<path d="M43.3913 14.4783H45.1304V16.2174H43.3913V14.4783Z" fill="white"/>
<path d="M45.1304 14.4783H46.8696L46.8696 16.2174H45.1304V14.4783Z" fill="white"/>
<path d="M46.8696 14.4783H48.6087V16.2174H46.8696L46.8696 14.4783Z" fill="white"/>
<path d="M48.6087 14.4783H50.3478V16.2174H48.6087V14.4783Z" fill="white"/>
<path d="M50.3478 14.4783H52.087V16.2174H50.3478V14.4783Z" fill="white"/>
<path d="M52.087 14.4783H53.8261V16.2174H52.087V14.4783Z" fill="white"/>
<path d="M53.8261 14.4783H55.5652V16.2174H53.8261V14.4783Z" fill="white"/>
<path d="M55.5652 14.4783H57.3043V16.2174H55.5652V14.4783Z" fill="white"/>
<path d="M57.3043 14.4783H59.0435V16.2174H57.3043V14.4783Z" fill="white"/>
<path d="M26 16.2174H27.7391V17.9565H26V16.2174Z" fill="white"/>
<path d="M27.7391 16.2174H29.4783V17.9565H27.7391V16.2174Z" fill="white"/>
<path d="M29.4783 16.2174H31.2174V17.9565H29.4783V16.2174Z" fill="white"/>
<path d="M31.2174 16.2174H32.9565V17.9565H31.2174V16.2174Z" fill="white"/>
<path d="M32.9565 16.2174H34.6957V17.9565H32.9565V16.2174Z" fill="white"/>
<path d="M34.6957 16.2174H36.4348V17.9565H34.6957V16.2174Z" fill="white"/>
<path d="M41.6522 16.2174H43.3913V17.9565H41.6522L41.6522 16.2174Z" fill="white"/>
<path d="M43.3913 16.2174H45.1304V17.9565H43.3913V16.2174Z" fill="white"/>
<path d="M45.1304 16.2174H46.8696V17.9565H45.1304V16.2174Z" fill="white"/>
<path d="M46.8696 16.2174H48.6087V17.9565H46.8696V16.2174Z" fill="white"/>
<path d="M48.6087 16.2174H50.3478V17.9565H48.6087V16.2174Z" fill="white"/>
<path d="M55.5652 16.2174H57.3043V17.9565H55.5652V16.2174Z" fill="white"/>
<path d="M57.3043 16.2174H59.0435V17.9565H57.3043V16.2174Z" fill="white"/>
<path d="M59.0435 16.2174H60.7826V17.9565H59.0435V16.2174Z" fill="white"/>
<path d="M60.7826 16.2174H62.5217V17.9565H60.7826V16.2174Z" fill="white"/>
<path d="M62.5217 16.2174H64.2609V17.9565H62.5217V16.2174Z" fill="white"/>
<path d="M64.2609 16.2174H66V17.9565H64.2609V16.2174Z" fill="white"/>
<path d="M26 17.9565H27.7391V19.6957H26V17.9565Z" fill="white"/>
<path d="M27.7391 17.9565H29.4783V19.6957H27.7391V17.9565Z" fill="white"/>
<path d="M29.4783 17.9565H31.2174V19.6957H29.4783V17.9565Z" fill="white"/>
<path d="M31.2174 17.9565H32.9565V19.6957H31.2174V17.9565Z" fill="white"/>
<path d="M32.9565 17.9565H34.6957V19.6957H32.9565V17.9565Z" fill="white"/>
<path d="M34.6957 17.9565H36.4348V19.6957H34.6957V17.9565Z" fill="white"/>
<path d="M41.6522 17.9565H43.3913V19.6957H41.6522V17.9565Z" fill="white"/>
<path d="M43.3913 17.9565H45.1304V19.6957H43.3913V17.9565Z" fill="white"/>
<path d="M45.1304 17.9565H46.8696V19.6957H45.1304V17.9565Z" fill="white"/>
<path d="M46.8696 17.9565H48.6087V19.6957H46.8696V17.9565Z" fill="white"/>
<path d="M48.6087 17.9565H50.3478V19.6957H48.6087V17.9565Z" fill="white"/>
<path d="M55.5652 17.9565H57.3043V19.6957H55.5652V17.9565Z" fill="white"/>
<path d="M57.3043 17.9565H59.0435V19.6957H57.3043V17.9565Z" fill="white"/>
<path d="M59.0435 17.9565H60.7826V19.6957H59.0435V17.9565Z" fill="white"/>
<path d="M60.7826 17.9565H62.5217V19.6957H60.7826V17.9565Z" fill="white"/>
<path d="M62.5217 17.9565H64.2609V19.6957H62.5217V17.9565Z" fill="white"/>
<path d="M64.2609 17.9565H66V19.6957H64.2609V17.9565Z" fill="white"/>
<path d="M31.2174 19.6957H32.9565V21.4348H31.2174V19.6957Z" fill="white"/>
<path d="M32.9565 19.6957H34.6957V21.4348H32.9565V19.6957Z" fill="white"/>
<path d="M34.6957 19.6957H36.4348V21.4348H34.6957V19.6957Z" fill="white"/>
<path d="M36.4348 19.6957H38.1739V21.4348H36.4348V19.6957Z" fill="white"/>
<path d="M38.1739 19.6957H39.913V21.4348H38.1739V19.6957Z" fill="white"/>
<path d="M39.913 19.6957H41.6522L41.6522 21.4348H39.913V19.6957Z" fill="white"/>
<path d="M41.6522 19.6957H43.3913V21.4348H41.6522L41.6522 19.6957Z" fill="white"/>
<path d="M43.3913 19.6957H45.1304V21.4348H43.3913V19.6957Z" fill="white"/>
<path d="M45.1304 19.6957H46.8696V21.4348H45.1304V19.6957Z" fill="white"/>
<path d="M46.8696 19.6957H48.6087V21.4348H46.8696V19.6957Z" fill="white"/>
<path d="M48.6087 19.6957H50.3478V21.4348H48.6087V19.6957Z" fill="white"/>
<path d="M50.3478 19.6957H52.087V21.4348H50.3478V19.6957Z" fill="white"/>
<path d="M52.087 19.6957H53.8261V21.4348H52.087V19.6957Z" fill="white"/>
<path d="M53.8261 19.6957H55.5652V21.4348H53.8261V19.6957Z" fill="white"/>
<path d="M55.5652 19.6957H57.3043V21.4348H55.5652V19.6957Z" fill="white"/>
<path d="M57.3043 19.6957H59.0435V21.4348H57.3043V19.6957Z" fill="white"/>
<path d="M59.0435 19.6957H60.7826V21.4348H59.0435V19.6957Z" fill="white"/>
<path d="M60.7826 19.6957H62.5217V21.4348H60.7826V19.6957Z" fill="white"/>
<path d="M64.2609 19.6957H66V21.4348H64.2609L64.2609 19.6957Z" fill="white"/>
<path d="M32.9565 21.4348H34.6957V23.1739H32.9565V21.4348Z" fill="white"/>
<path d="M34.6957 21.4348H36.4348V23.1739H34.6957V21.4348Z" fill="white"/>
<path d="M36.4348 21.4348H38.1739V23.1739H36.4348V21.4348Z" fill="white"/>
<path d="M38.1739 21.4348H39.913V23.1739H38.1739V21.4348Z" fill="white"/>
<path d="M39.913 21.4348H41.6522V23.1739H39.913V21.4348Z" fill="white"/>
<path d="M41.6522 21.4348H43.3913V23.1739H41.6522V21.4348Z" fill="white"/>
<path d="M48.6087 21.4348H50.3478V23.1739H48.6087V21.4348Z" fill="white"/>
<path d="M50.3478 21.4348H52.087V23.1739H50.3478V21.4348Z" fill="white"/>
<path d="M52.087 21.4348H53.8261V23.1739H52.087V21.4348Z" fill="white"/>
<path d="M53.8261 21.4348H55.5652V23.1739H53.8261V21.4348Z" fill="white"/>
<path d="M55.5652 21.4348H57.3043V23.1739H55.5652V21.4348Z" fill="white"/>
<path d="M57.3043 21.4348H59.0435V23.1739H57.3043V21.4348Z" fill="white"/>
<path d="M59.0435 21.4348H60.7826V23.1739H59.0435V21.4348Z" fill="white"/>
<path d="M34.6957 23.1739H36.4348V24.913H34.6957V23.1739Z" fill="white"/>
<path d="M36.4348 23.1739H38.1739V24.913H36.4348V23.1739Z" fill="white"/>
<path d="M38.1739 23.1739H39.913V24.913H38.1739V23.1739Z" fill="white"/>
<path d="M39.913 23.1739H41.6522V24.913H39.913V23.1739Z" fill="white"/>
<path d="M50.3478 23.1739H52.087V24.913H50.3478L50.3478 23.1739Z" fill="white"/>
<path d="M52.087 23.1739H53.8261V24.913H52.087V23.1739Z" fill="white"/>
<path d="M53.8261 23.1739H55.5652V24.913H53.8261V23.1739Z" fill="white"/>
<path d="M55.5652 23.1739H57.3043V24.913H55.5652V23.1739Z" fill="white"/>
<path d="M57.3043 23.1739H59.0435V24.913H57.3043V23.1739Z" fill="white"/>
</svg>
