<svg width="96" height="45" viewBox="0 0 96 45" fill="none" xmlns="http://www.w3.org/2000/svg">
<path d="M7.63752 33.5H88.3378V36.0008H93.3816L93.3817 37.3257H88.3379V42.3695H7.63759V37.3257H2.59382L2.59375 36.0008H7.63752V33.5Z" fill="#121212"/>
<path fill-rule="evenodd" clip-rule="evenodd" d="M5.04377 8.07054H90.932V13.1143H95.9757V39.9183H90.932V44.9621H5.04377V39.9183H0V13.1143H5.04377V8.07054ZM5.18788 18.3022H10.2316V13.2584H85.7441V18.3022H90.7879V34.7305H85.7441V39.7742H10.2316V34.7305H5.18788V18.3022Z" fill="black"/>
<path d="M7.63752 2.59375H88.3378V7.63752H93.3816V29.2537H88.3378V34.2974H7.63752V29.2537H2.59375V7.63752H7.63752V2.59375Z" fill="#2E2E2E"/>
<path fill-rule="evenodd" clip-rule="evenodd" d="M5.04377 0H90.932V5.04377H95.9757V31.8478H90.932V36.8916H5.04377V31.8478H0V5.04377H5.04377V0ZM5.18788 10.2316H10.2316V5.18788H85.7441V10.2316H90.7879V26.6599H85.7441V31.7037H10.2316V26.6599H5.18788V10.2316Z" fill="black"/>
<path d="M24.2148 10.2324H29.2586V26.7328H24.2148V10.2324Z" fill="#A9A9A9"/>
<path d="M38.332 10.2324H43.3758V26.7328H38.332V10.2324Z" fill="#A9A9A9"/>
<path d="M52.457 10.2324H57.5008V26.7328H52.457V10.2324Z" fill="#A9A9A9"/>
<path d="M66.582 10.2324H71.6258V26.7328H66.582V10.2324Z" fill="#A9A9A9"/>
</svg>
